<?xml version="1.0" encoding="UTF-8"?>
<svg version="1.1" xmlns="http://www.w3.org/2000/svg" width="376" height="372">
<path d="M0 0 C124.08 0 248.16 0 376 0 C376 122.76 376 245.52 376 372 C251.92 372 127.84 372 0 372 C0 249.24 0 126.48 0 0 Z " fill="#102339" transform="translate(0,0)"/>
<path d="M0 0 C0.95708359 0.00222061 1.91416718 0.00444122 2.9002533 0.00672913 C3.98129837 0.00680466 5.06234344 0.00688019 6.17614746 0.00695801 C7.94018166 0.01469994 7.94018166 0.01469994 9.73985291 0.02259827 C10.93702438 0.02401321 12.13419586 0.02542816 13.36764526 0.02688599 C17.20918732 0.03250472 21.05067208 0.04506041 24.89219666 0.05775452 C27.48920102 0.0627671 30.0862063 0.06733043 32.68321228 0.07142639 C39.06539344 0.08248024 45.44754096 0.0992366 51.82969666 0.12025452 C52.44506287 1.38857117 52.44506287 1.38857117 53.07286072 2.68251038 C63.66211382 24.50541219 74.28195425 46.31325433 84.9214325 68.11170959 C88.10702723 74.63864937 91.29093489 81.16641063 94.47422791 87.69447327 C95.4009011 89.59470271 96.32757749 91.49493059 97.2542572 93.39515686 C98.59481358 96.14407437 99.93532134 98.89301553 101.27565002 101.64204407 C102.5044216 104.16221318 103.73343845 106.68226253 104.96250916 109.20228577 C105.32613052 109.94822495 105.68975189 110.69416412 106.06439209 111.46270752 C108.01504898 115.47203536 108.01504898 115.47203536 110.07139587 119.42762756 C110.82969666 121.12025452 110.82969666 121.12025452 110.82969666 124.12025452 C95.31969666 124.12025452 79.80969666 124.12025452 63.82969666 124.12025452 C60.85969666 117.52025452 57.88969666 110.92025452 54.82969666 104.12025452 C34.36969666 104.12025452 13.90969666 104.12025452 -7.17030334 104.12025452 C-9.81030334 110.06025452 -12.45030334 116.00025452 -15.17030334 122.12025452 C-17.17030334 124.12025452 -17.17030334 124.12025452 -19.15715027 124.36076355 C-19.9698941 124.35632233 -20.78263794 124.3518811 -21.62001038 124.3473053 C-22.5408139 124.34715424 -23.46161743 124.34700317 -24.4103241 124.34684753 C-25.40619537 124.33652496 -26.40206665 124.32620239 -27.42811584 124.31556702 C-28.44630402 124.31273712 -29.46449219 124.30990723 -30.51353455 124.30699158 C-33.77424235 124.29577222 -37.03467818 124.27066448 -40.29530334 124.24525452 C-42.50233064 124.23522699 -44.70936222 124.22610074 -46.91639709 124.21791077 C-52.33445907 124.19582719 -57.75236178 124.16233247 -63.17030334 124.12025452 C-62.56753084 120.39195079 -61.50561256 117.4176589 -59.81690979 114.04597473 C-59.3205452 113.04767639 -58.8241806 112.04937805 -58.31277466 111.02082825 C-57.76624741 109.93698853 -57.21972015 108.8531488 -56.65663147 107.73646545 C-56.08263107 106.58642029 -55.50863068 105.43637512 -54.91723633 104.2514801 C-53.34627561 101.10443422 -51.76788937 97.96116676 -50.18802452 94.81858349 C-48.53616655 91.5299187 -46.89080492 88.23800655 -45.24464417 84.94648743 C-42.48120093 79.42329043 -39.71326157 73.9023664 -36.942276 68.38294983 C-33.38195799 61.29123372 -29.82909272 54.19581124 -26.27855682 47.09919357 C-23.22833314 41.00272089 -20.17470148 34.90795656 -17.12051964 28.81346607 C-16.13735377 26.85123746 -15.15465985 24.88877303 -14.17202759 22.92627716 C-12.34519745 19.27840498 -10.51482221 15.63232325 -8.68397522 11.98646545 C-8.13744797 10.89452881 -7.59092072 9.80259216 -7.02783203 8.67756653 C-6.53146744 7.69054749 -6.03510284 6.70352844 -5.5236969 5.68659973 C-5.09083122 4.82384304 -4.65796555 3.96108635 -4.21198273 3.07218552 C-2.6508469 0.14688099 -2.6508469 0.14688099 0 0 Z " fill="#FCFCFD" transform="translate(163.17030334472656,84.87974548339844)"/>
<path d="M0 0 C17.82 0 35.64 0 54 0 C54 22.77 54 45.54 54 69 C36.18 69 18.36 69 0 69 C0 60.09 0 51.18 0 42 C-16.83 42 -33.66 42 -51 42 C-51 50.91 -51 59.82 -51 69 C-68.49 69 -85.98 69 -104 69 C-104 46.56 -104 24.12 -104 1 C-86.18 1 -68.36 1 -50 1 C-50 9.58 -50 18.16 -50 27 C-33.5 27 -17 27 0 27 C0 18.09 0 9.18 0 0 Z " fill="#FDFDFD" transform="translate(212,214)"/>
<path d="M0 0 C0.66 0 1.32 0 2 0 C2.45850342 1.03294189 2.91700684 2.06588379 3.3894043 3.13012695 C5.11287397 7.0125055 6.83698624 10.89459841 8.5612793 14.77661133 C9.30331289 16.44743356 10.04517899 18.11833019 10.78686523 19.78930664 C11.86136073 22.21000081 12.93648436 24.6304152 14.01171875 27.05078125 C14.35886932 27.83317169 14.7060199 28.61556213 15.06369019 29.42166138 C17.3905067 34.65718928 19.76460211 39.86861054 22.19848633 45.05541992 C23 47 23 47 23 49 C8.48 49 -6.04 49 -21 49 C-11.64440735 27.17028381 -11.64440735 27.17028381 -9.3359375 22.20703125 C-8.85382813 21.16482422 -8.37171875 20.12261719 -7.875 19.04882812 C-6.86914705 16.87864799 -5.86131106 14.70938594 -4.8515625 12.54101562 C-4.13226563 10.98350586 -4.13226563 10.98350586 -3.3984375 9.39453125 C-2.74367432 7.98457886 -2.74367432 7.98457886 -2.07568359 6.54614258 C-1.15010466 4.35529766 -0.4886053 2.32070482 0 0 Z " fill="#10243A" transform="translate(186,113)"/>
</svg>
